<svg width="140" height="40" xmlns="http://www.w3.org/2000/svg" t="1686198090929" class="icon" version="1.1" p-id="2438">
 <g>
  <title>Layer 1</title>
  <g stroke="null" id="svg_7">
   <path stroke="null" d="m31.5094,2.90844l21.00194,0c3.68482,0 6.68238,2.99756 6.68238,6.68242l0,21.00194c0,3.68482 -2.99756,6.68238 -6.68242,6.68238l-21.00194,0c-3.68482,0 -6.68238,-2.99756 -6.68238,-6.68242l0,-21.00194c0,-3.68482 2.99756,-6.68238 6.68242,-6.68238z" fill="#170B1A" p-id="2439" id="svg_1"/>
   <path stroke="null" d="m41.99126,13.04664c0.01909,-2.15745 0,-4.31495 0.01909,-6.4724l4.41039,0c-0.01909,0.38182 0.03819,0.76368 0.09548,1.12645l-3.24574,0l0,17.52704c0.01909,0.74463 -0.17183,1.48922 -0.53463,2.13838c-0.57276,0.99281 -1.64195,1.68014 -2.7875,1.7756c-0.72553,0.05729 -1.47012,-0.07635 -2.11929,-0.43912c-0.49637,-0.26731 -0.91642,-0.64915 -1.241,-1.10739c1.12645,0.63008 2.59657,0.5728 3.68486,-0.13364c1.0501,-0.64911 1.73743,-1.87107 1.73743,-3.1312c-0.01909,-3.76121 -0.01909,-7.5225 -0.01909,-11.28374l0,0.00002zm7.27431,-1.24103c0.61095,0.38186 1.29828,0.68733 2.00472,0.84007c0.42006,0.09548 0.84007,0.13368 1.27922,0.13368l0,0.99281c-1.26013,-0.28642 -2.4248,-0.99281 -3.28398,-1.96655l0.00004,0z" fill="#25F4EE" p-id="2440" id="svg_2"/>
   <path stroke="null" d="m34.04871,17.30429c1.5847,-0.99281 3.51306,-1.39377 5.34597,-1.12645l0,1.0501c-0.49643,0.01909 -0.97375,0.07635 -1.47016,0.17183c-1.18374,0.24818 -2.31023,0.74459 -3.28398,1.47012c-1.05006,0.78281 -1.85195,1.85198 -2.40567,3.03572c-0.53456,1.12649 -0.80185,2.36751 -0.78279,3.62764c0,1.37467 0.38186,2.71114 1.03101,3.91398c0.30551,0.55367 0.64918,1.08826 1.10739,1.52738c-0.93555,-0.64915 -1.71834,-1.52738 -2.29113,-2.52022c-0.78279,-1.31739 -1.16465,-2.86388 -1.12645,-4.41039c0.05729,-1.41286 0.45821,-2.80662 1.20284,-4.02857c0.64915,-1.08826 1.5847,-2.04287 2.67296,-2.71114l0.00001,0z" fill="#25F4EE" p-id="2441" id="svg_3"/>
   <path stroke="null" d="m43.27048,7.70069l3.26485,0c0.11455,0.63004 0.34367,1.22193 0.63004,1.79472c0.45821,0.87827 1.10739,1.66105 1.94746,2.17655c0.05726,0.03819 0.09544,0.07639 0.13364,0.13364c0.85916,0.97375 2.02381,1.68014 3.30303,1.96655c0.01909,1.14554 0,2.31019 0,3.45577c-2.15749,0.01909 -4.31497,-0.66824 -6.07147,-1.92837c0,2.74934 0,5.49868 0.01909,8.24802c0,0.36277 0.01909,0.72553 0,1.10736c-0.09548,1.33651 -0.5155,2.65389 -1.18374,3.81854c-0.5728,1.01191 -1.35557,1.9093 -2.29113,2.59663c-1.20284,0.89733 -2.69205,1.39374 -4.1813,1.43192c-0.76368,0.01909 -1.52738,-0.01913 -2.27199,-0.19096c-1.05013,-0.22909 -2.04291,-0.6682 -2.92117,-1.27919l-0.05729,-0.05726c-0.43912,-0.43915 -0.80188,-0.97375 -1.10739,-1.5274c-0.64915,-1.18378 -1.03101,-2.53935 -1.03101,-3.91402c-0.01906,-1.241 0.24822,-2.50112 0.78281,-3.6276c0.55369,-1.18371 1.37467,-2.2529 2.40567,-3.03572c0.97371,-0.72553 2.1002,-1.22193 3.28394,-1.47012c0.4773,-0.09548 0.97371,-0.15274 1.47012,-0.17183c0.01913,0.43912 0,0.87827 0.01913,1.29828l0,2.23384c-0.55373,-0.19094 -1.16467,-0.19094 -1.73747,-0.05729c-0.68733,0.15277 -1.33648,0.45825 -1.87104,0.91646c-0.3246,0.28638 -0.61098,0.63004 -0.80192,1.01191c-0.34367,0.64915 -0.45825,1.41286 -0.38186,2.13838c0.07639,0.70643 0.38186,1.39377 0.84007,1.92837c0.30547,0.38182 0.70643,0.6682 1.10739,0.93553c0.32454,0.45821 0.74459,0.84007 1.241,1.10739c0.64918,0.34367 1.3938,0.49637 2.11929,0.43912c1.14554,-0.07635 2.21475,-0.78279 2.78753,-1.77563c0.36277,-0.64915 0.55369,-1.39374 0.5346,-2.13836c0.03819,-5.88055 0.01909,-11.72289 0.01909,-17.56524l0.00002,0.00001z" fill="#FFFFFF" p-id="2442" id="svg_4"/>
   <path stroke="null" d="m46.53533,7.70069c0.38182,0.01909 0.76368,0 1.16465,0c0,1.27922 0.40095,2.55841 1.14554,3.60851c0.09548,0.13364 0.19096,0.24822 0.28642,0.36277c-0.84011,-0.5155 -1.50834,-1.29828 -1.94746,-2.17655c-0.28638,-0.55369 -0.5155,-1.16467 -0.64915,-1.79472zm6.01418,6.07147c0.42002,0.09544 0.84003,0.13364 1.27919,0.13364l0,4.44858c-2.17655,0.01909 -4.3531,-0.70643 -6.12873,-1.98562l0,8.82078c0.01909,0.66824 -0.03819,1.33651 -0.19094,1.98565c-0.42006,1.98562 -1.60379,3.78034 -3.24574,4.94499c-0.87827,0.63004 -1.87107,1.06919 -2.90208,1.29828c-1.26013,0.28642 -2.5775,0.26731 -3.81854,-0.05726c-1.47012,-0.38186 -2.84479,-1.20284 -3.87579,-2.32932c0.87823,0.63008 1.87104,1.05013 2.92117,1.27922c0.74459,0.17183 1.50831,0.21003 2.27199,0.19094c1.48925,-0.03819 2.97847,-0.53463 4.1813,-1.43196c0.93555,-0.68733 1.69924,-1.5847 2.29113,-2.59661c0.6682,-1.16465 1.08826,-2.48202 1.18371,-3.81854c0.01913,-0.36273 0.01913,-0.7255 0,-1.10736c-0.01906,-2.74934 -0.01906,-5.49868 -0.01906,-8.24802c1.75653,1.26013 3.91398,1.94746 6.07147,1.92837c-0.01913,-1.14558 0,-2.31023 -0.01913,-3.45581l0.00004,0.00004l0,0.00001z" fill="#FE2C55" p-id="2443" id="svg_5"/>
   <path stroke="null" d="m39.41376,17.20883c0.42006,0 0.85916,0.01909 1.27922,0.07635l0,4.56316c-0.61098,-0.21003 -1.29832,-0.22912 -1.92837,-0.07639c-1.20284,0.26731 -2.21475,1.18374 -2.63479,2.34841c-0.42002,1.14554 -0.24818,2.48202 0.4773,3.45573c-0.42002,-0.24818 -0.80188,-0.55367 -1.10736,-0.93553c-0.45821,-0.5346 -0.76372,-1.22193 -0.84007,-1.92837c-0.07639,-0.72553 0.03819,-1.48922 0.38186,-2.13836c0.1909,-0.38186 0.4773,-0.72553 0.80188,-1.01194c0.5346,-0.45821 1.20284,-0.74459 1.87107,-0.91642c0.5728,-0.13364 1.18374,-0.13364 1.73743,0.05726l0,-2.23384c-0.03819,-0.38182 -0.01909,-0.82098 -0.03819,-1.26009l0,0.00001z" fill="#FE2C55" p-id="2444" id="svg_6"/>
  </g>
  <text fill="#000000" x="65.62527" y="30.36964" id="svg_8" font-size="24" font-family="sans-serif" text-anchor="start" xml:space="preserve" font-weight="bold" font-style="normal" stroke-width="0">抖音</text>
 </g>

</svg>