<svg width="140" height="40" xmlns="http://www.w3.org/2000/svg" p-id="2438" version="1.1" class="icon" t="1686198090929">

 <g>
  <title>Layer 1</title>
  <g stroke="null" id="svg_7">
   <path stroke="null" id="svg_1" p-id="2439" fill="#170B1A" d="m32.83215,6.25214l17.67617,0c3.10131,0 5.62419,2.52288 5.62419,5.62422l0,17.67617c0,3.10131 -2.52288,5.62419 -5.62422,5.62419l-17.67617,0c-3.10131,0 -5.62419,-2.52288 -5.62419,-5.62422l0,-17.67617c0,-3.10131 2.52288,-5.62419 5.62422,-5.62419z"/>
   <path stroke="null" id="svg_2" p-id="2440" fill="#25F4EE" d="m41.65415,14.7849c0.01607,-1.81581 0,-3.63165 0.01607,-5.44746l3.71198,0c-0.01607,0.32136 0.03214,0.64275 0.08036,0.94807l-2.73176,0l0,14.75154c0.01607,0.62671 -0.14462,1.25339 -0.44997,1.79976c-0.48206,0.83559 -1.38194,1.41408 -2.34608,1.49442c-0.61064,0.04822 -1.23732,-0.06426 -1.78369,-0.36958c-0.41777,-0.22498 -0.7713,-0.54635 -1.04448,-0.93203c0.94807,0.5303 2.18539,0.48209 3.10134,-0.11248c0.88381,-0.54632 1.4623,-1.57478 1.4623,-2.63536c-0.01607,-3.1656 -0.01607,-6.33127 -0.01607,-9.4969zm6.12238,-1.04451c0.5142,0.32139 1.09269,0.57849 1.68726,0.70704c0.35354,0.08036 0.70704,0.11251 1.07665,0.11251l0,0.83559c-1.06058,-0.24106 -2.04082,-0.83559 -2.76394,-1.65514l0.00003,0z"/>
   <path stroke="null" id="svg_3" p-id="2441" fill="#25F4EE" d="m34.96935,18.36833c1.33375,-0.83559 2.95675,-1.17306 4.49941,-0.94807l0,0.88381c-0.41782,0.01607 -0.81955,0.06426 -1.23735,0.14462c-0.99629,0.20888 -1.94439,0.62668 -2.76394,1.23732c-0.88378,0.65885 -1.55868,1.55871 -2.02472,2.555c-0.44991,0.9481 -0.67487,1.9926 -0.65883,3.05318c0,1.15698 0.32139,2.28182 0.86774,3.29418c0.25713,0.46599 0.54638,0.91593 0.93203,1.28551c-0.7874,-0.54635 -1.44623,-1.28551 -1.92832,-2.12113c-0.65883,-1.10877 -0.98022,-2.41037 -0.94807,-3.71198c0.04822,-1.18913 0.38565,-2.36218 1.01236,-3.39062c0.54635,-0.91593 1.33375,-1.71937 2.24968,-2.28182z"/>
   <path stroke="null" id="svg_4" p-id="2442" fill="#FFFFFF" d="m42.7308,10.28551l2.74784,0c0.09641,0.53027 0.28925,1.02843 0.53027,1.51052c0.38565,0.73919 0.93203,1.39801 1.63907,1.83188c0.04819,0.03214 0.08033,0.06429 0.11248,0.11248c0.72311,0.81955 1.70333,1.41408 2.77998,1.65514c0.01607,0.96414 0,1.94436 0,2.90853c-1.81584,0.01607 -3.63167,-0.56242 -5.11002,-1.623c0,2.31397 0,4.62793 0.01607,6.9419c0,0.30532 0.01607,0.61064 0,0.932c-0.08036,1.12487 -0.43387,2.23363 -0.99629,3.21385c-0.48209,0.85167 -1.14091,1.60695 -1.92832,2.18544c-1.01236,0.75523 -2.26575,1.17303 -3.51917,1.20517c-0.64275,0.01607 -1.28551,-0.0161 -1.91221,-0.16072c-0.88384,-0.19281 -1.7194,-0.56239 -2.45859,-1.07662l-0.04822,-0.04819c-0.36958,-0.36961 -0.6749,-0.81955 -0.93203,-1.28553c-0.54635,-0.99632 -0.86774,-2.13723 -0.86774,-3.29421c-0.01604,-1.04448 0.20891,-2.10505 0.65885,-3.05315c0.46601,-0.99626 1.15698,-1.89614 2.02472,-2.555c0.81952,-0.61064 1.76762,-1.02843 2.76391,-1.23732c0.40172,-0.08036 0.81952,-0.12855 1.23732,-0.14462c0.0161,0.36958 0,0.73919 0.0161,1.09269l0,1.8801c-0.46604,-0.1607 -0.98024,-0.1607 -1.46233,-0.04822c-0.57849,0.12858 -1.12484,0.38568 -1.57475,0.77133c-0.2732,0.24103 -0.51423,0.53027 -0.67493,0.85167c-0.28925,0.54635 -0.38568,1.18913 -0.32139,1.79976c0.06429,0.59456 0.32139,1.17306 0.70704,1.623c0.2571,0.32136 0.59456,0.56239 0.93203,0.78738c0.27315,0.38565 0.62668,0.70704 1.04448,0.93203c0.54638,0.28925 1.17308,0.41777 1.78369,0.36958c0.96414,-0.06426 1.86403,-0.65883 2.34611,-1.49445c0.30532,-0.54635 0.46601,-1.17303 0.44994,-1.79974c0.03214,-4.94933 0.01607,-9.86651 0.01607,-14.78369z"/>
   <path stroke="null" id="svg_5" p-id="2443" fill="#FE2C55" d="m45.47864,10.28551c0.32136,0.01607 0.64275,0 0.98022,0c0,1.07665 0.33746,2.15327 0.96414,3.03708c0.08036,0.11248 0.16072,0.20891 0.24106,0.30532c-0.70707,-0.43387 -1.26949,-1.09269 -1.63907,-1.83188c-0.24103,-0.46601 -0.43387,-0.98024 -0.54635,-1.51052zm5.0618,5.11002c0.35351,0.08033 0.70701,0.11248 1.07662,0.11248l0,3.74412c-1.83188,0.01607 -3.66376,-0.59456 -5.15821,-1.67119l0,7.42396c0.01607,0.56242 -0.03214,1.12487 -0.1607,1.67121c-0.35354,1.67119 -1.34982,3.1817 -2.73176,4.16192c-0.73919,0.53027 -1.57478,0.89988 -2.44252,1.09269c-1.06058,0.24106 -2.16934,0.22498 -3.21385,-0.04819c-1.23732,-0.32139 -2.3943,-1.01236 -3.26204,-1.96046c0.73916,0.5303 1.57475,0.88384 2.45859,1.07665c0.62668,0.14462 1.26946,0.17677 1.91221,0.1607c1.25342,-0.03214 2.50681,-0.44997 3.51917,-1.2052c0.7874,-0.57849 1.43016,-1.33375 1.92832,-2.18542c0.56239,-0.98022 0.91593,-2.08898 0.99626,-3.21385c0.0161,-0.30529 0.0161,-0.61061 0,-0.932c-0.01604,-2.31397 -0.01604,-4.62793 -0.01604,-6.9419c1.47837,1.06058 3.29418,1.63907 5.11002,1.623c-0.0161,-0.96417 0,-1.94439 -0.0161,-2.90856l0.00003,0.00003z"/>
   <path stroke="null" id="svg_6" p-id="2444" fill="#FE2C55" d="m39.48481,18.28799c0.35354,0 0.72311,0.01607 1.07665,0.06426l0,3.84056c-0.51423,-0.17677 -1.09272,-0.19284 -1.623,-0.06429c-1.01236,0.22498 -1.86403,0.99629 -2.21756,1.97653c-0.35351,0.96414 -0.20888,2.08898 0.40172,2.9085c-0.35351,-0.20888 -0.6749,-0.46599 -0.932,-0.78738c-0.38565,-0.44994 -0.64278,-1.02843 -0.70704,-1.623c-0.06429,-0.61064 0.03214,-1.25339 0.32139,-1.79974c0.16067,-0.32139 0.40172,-0.61064 0.6749,-0.85169c0.44994,-0.38565 1.01236,-0.62668 1.57478,-0.7713c0.48209,-0.11248 0.99629,-0.11248 1.4623,0.04819l0,-1.8801c-0.03214,-0.32136 -0.01607,-0.69097 -0.03214,-1.06055z"/>
  </g>
  <text stroke-width="0" font-style="normal" font-weight="normal" xml:space="preserve" text-anchor="start" font-family="sans-serif" font-size="24" id="svg_8" y="30.36964" x="65.62527" fill="#000000">抖音</text>
 </g>
</svg>